<?xml version="1.0" encoding="UTF-8" ?>
<!DOCTYPE svg PUBLIC "-//W3C//DTD SVG 1.1//EN" "http://www.w3.org/Graphics/SVG/1.1/DTD/svg11.dtd">
<svg width="200px" height="200px" viewBox="0 0 720 720" version="1.1" xmlns="http://www.w3.org/2000/svg">
<style type="text/css" >
  <![CDATA[
	svg {
        stroke-dasharray: 0%, 200%;
        stroke-dashoffset: 0%;
        stroke: #5775ac;
        stroke-linecap: round;
        stroke-linejoin: round;
        fill: transparent;
        -moz-animation: stroke 6s 0s ease-in-out alternate infinite;
        -webkit-animation: stroke 6s 0s ease-in-out alternate infinite;
        animation: stroke 6s 0s ease-in-out alternate infinite;
    }
    @-webkit-keyframes stroke {
        0% {
            stroke-dasharray: 0%, 200%;
            stroke-dashoffset: 0%;
        }
        50% {
            stroke-dasharray: 200%, 200%;
            stroke-dashoffset: 0%;
            fill: transparent;
        }
        70% {
            stroke-dasharray: 200%, 200%;
            stroke-dashoffset: 0%;
            fill: #5775ac;
        }
        100% {
            stroke-dasharray: 200%, 200%;
            stroke-dashoffset: 0%;
            fill: #5775ac;
        }
    }
    @-moz-keyframes stroke {
        0% {
            stroke-dasharray: 0%, 200%;
            stroke-dashoffset: 0%;
        }
        50% {
            stroke-dasharray: 200%, 200%;
            stroke-dashoffset: 0%;
            fill: transparent;
        }
        70% {
            stroke-dasharray: 200%, 200%;
            stroke-dashoffset: 0%;
            fill: #5775ac;
        }
        100% {
            stroke-dasharray: 200%, 200%;
            stroke-dashoffset: 0%;
            fill: #5775ac;
        }
    }
    @-o-keyframes stroke {
        0% {
            stroke-dasharray: 0%, 200%;
            stroke-dashoffset: 0%;
        }
        50% {
            stroke-dasharray: 200%, 200%;
            stroke-dashoffset: 0%;
            fill: transparent;
        }
        70% {
            stroke-dasharray: 200%, 200%;
            stroke-dashoffset: 0%;
            fill: #5775ac;
        }
        100% {
            stroke-dasharray: 200%, 200%;
            stroke-dashoffset: 0%;
            fill: #5775ac;
        }
    }
    @keyframes stroke {
        0% {
            stroke-dasharray: 0%, 200%;
            stroke-dashoffset: 0%;
        }
        50% {
            stroke-dasharray: 200%, 200%;
            stroke-dashoffset: 0%;
            fill: transparent;
        }
        70% {
            stroke-dasharray: 200%, 200%;
            stroke-dashoffset: 0%;
            fill: #5775ac;
        }
        100% {
            stroke-dasharray: 200%, 200%;
            stroke-dashoffset: 0%;
            fill: #5775ac;
        }
    }
  ]]>
</style>
<g>
<path d=" M 320.67 1.84 C 330.43 1.12 340.20 0.18 350.01 0.50 C 354.60 0.71 360.14 -0.40 363.81 3.08 C 367.49 7.21 367.58 13.73 365.58 18.64 C 362.79 24.06 355.93 23.31 350.85 24.20 C 336.98 26.46 322.88 26.24 308.95 27.95 C 275.84 31.91 243.45 41.75 213.60 56.61 C 182.66 72.45 153.83 92.61 129.00 116.98 C 106.72 138.98 87.83 164.39 73.20 192.07 C 68.45 201.40 65.06 211.45 59.20 220.20 C 57.19 223.26 53.61 225.60 49.82 224.70 C 44.40 223.49 38.09 219.37 38.75 213.06 C 39.79 206.16 42.40 199.59 45.32 193.29 C 50.18 183.86 54.59 174.18 60.12 165.11 C 79.97 131.00 106.58 100.96 137.36 76.32 C 161.96 56.98 188.47 39.72 217.24 27.22 C 249.96 13.05 285.05 4.16 320.67 1.84 Z" />
<path d=" M 414.32 6.49 C 419.69 4.73 425.38 5.63 430.82 6.55 C 472.18 13.99 512.70 28.05 548.42 50.44 C 562.64 59.26 575.70 69.78 588.39 80.66 C 612.76 101.61 635.08 125.06 653.79 151.24 C 677.42 183.44 695.76 219.62 706.99 257.98 C 713.49 280.49 717.68 303.69 719.41 327.06 C 719.47 335.94 720.84 345.16 717.82 353.73 C 715.41 360.29 706.41 361.40 700.99 358.15 C 696.09 354.88 696.31 348.29 695.88 343.09 C 695.27 326.00 693.85 308.90 690.37 292.14 C 681.75 248.41 663.04 206.96 637.59 170.48 C 617.57 141.35 592.37 116.20 565.54 93.35 C 549.31 80.06 531.73 68.35 512.87 59.12 C 481.88 44.00 448.44 34.37 414.58 28.32 C 409.70 26.38 408.26 20.69 408.01 15.96 C 407.98 11.84 410.71 8.24 414.32 6.49 Z" />
<path d=" M 331.53 55.78 C 358.11 53.52 385.00 54.64 411.28 59.30 C 430.48 63.11 449.55 67.88 467.89 74.82 C 489.13 82.67 510.11 91.67 529.29 103.81 C 560.86 123.58 587.98 150.15 609.31 180.63 C 633.07 214.25 650.24 252.61 658.87 292.90 C 664.04 317.51 666.34 342.75 665.34 367.89 C 664.74 383.46 665.41 399.42 660.70 414.47 C 659.84 417.59 657.47 420.56 654.09 420.96 C 649.28 421.28 643.68 420.50 640.46 416.53 C 638.13 413.51 639.17 409.46 639.22 405.97 C 640.47 381.06 642.45 356.07 640.21 331.16 C 638.38 306.32 632.08 281.99 623.32 258.73 C 605.04 210.71 573.97 167.14 532.73 136.20 C 516.23 123.75 498.00 113.70 478.89 105.88 C 455.50 95.98 431.13 88.27 406.13 83.74 C 366.72 76.81 326.01 78.92 287.15 88.10 C 272.44 92.17 257.66 96.01 242.93 100.00 C 239.67 100.83 235.70 101.61 232.97 99.09 C 230.04 96.21 228.71 92.05 228.29 88.05 C 227.91 84.42 229.55 80.39 233.04 78.85 C 257.72 67.71 284.58 62.76 311.18 58.67 C 317.98 57.81 324.67 56.23 331.53 55.78 Z" />
<path d=" M 204.37 97.61 C 212.25 95.00 220.52 103.16 219.19 111.02 C 218.88 113.59 217.56 115.97 215.64 117.68 C 211.67 121.39 207.33 124.68 203.19 128.20 C 175.51 151.36 148.69 176.01 126.96 204.99 C 115.35 220.63 104.50 237.14 97.67 255.49 C 86.12 285.91 83.92 318.80 82.99 351.01 C 83.13 387.28 91.45 422.83 93.89 458.92 C 96.47 485.32 93.45 511.92 88.35 537.85 C 86.66 545.42 85.17 553.09 82.44 560.38 C 80.70 564.72 77.07 569.10 72.02 569.24 C 65.03 570.31 57.80 563.08 59.40 556.03 C 63.68 536.11 68.94 516.25 70.07 495.82 C 72.44 459.28 65.12 423.16 61.08 387.02 C 57.75 359.12 58.74 330.87 62.03 303.01 C 64.70 281.17 69.74 259.51 78.10 239.11 C 93.00 205.14 116.68 175.86 142.66 149.72 C 154.51 137.86 166.81 126.44 179.66 115.66 C 187.28 108.87 195.32 102.40 204.37 97.61 Z" />
<path d=" M 345.12 114.26 C 350.04 113.72 355.01 114.11 359.95 114.00 C 370.90 114.13 381.87 113.56 392.78 114.75 C 403.80 115.95 414.88 117.45 425.52 120.65 C 431.19 122.21 432.77 128.99 431.83 134.11 C 431.52 138.67 427.85 143.25 423.00 143.01 C 404.64 141.77 386.49 137.85 368.02 138.50 C 336.55 137.68 305.14 143.78 275.72 154.76 C 248.21 165.59 223.19 182.40 202.09 203.03 C 180.99 223.66 164.53 249.24 155.63 277.43 C 146.69 306.71 143.93 337.49 143.73 367.98 C 143.86 395.76 147.05 423.40 149.35 451.05 C 150.53 466.36 152.92 481.61 152.51 497.00 C 152.08 521.42 146.98 545.48 140.58 568.97 C 138.29 577.16 136.79 585.63 133.33 593.45 C 130.19 600.80 126.63 608.25 120.98 614.03 C 114.22 618.93 102.50 613.72 102.50 605.04 C 103.77 599.08 106.69 593.64 108.82 587.96 C 116.31 568.61 122.35 548.61 125.45 528.07 C 128.23 510.19 128.65 491.98 127.41 473.96 C 121.79 417.89 115.30 360.94 124.56 304.88 C 128.52 281.70 134.73 258.60 145.79 237.72 C 161.22 207.82 184.40 182.25 211.58 162.56 C 238.59 142.90 269.24 127.88 301.84 120.27 C 316.06 117.01 330.57 115.20 345.12 114.26 Z" />
<path d=" M 463.39 141.41 C 467.80 139.72 472.68 141.41 476.93 142.89 C 496.24 153.85 513.81 167.80 529.58 183.40 C 568.38 221.43 596.04 271.21 605.65 324.84 C 610.77 353.62 613.63 382.75 615.20 411.93 C 617.79 451.87 617.42 491.94 615.27 531.89 C 613.89 555.65 613.31 579.46 610.94 603.15 C 610.19 610.26 610.01 617.64 607.44 624.38 C 605.03 629.84 598.17 630.14 593.10 629.21 C 589.64 628.41 586.98 625.34 586.52 621.86 C 585.17 611.97 586.81 602.02 587.63 592.16 C 589.27 577.17 589.62 562.08 590.42 547.02 C 591.88 520.70 592.80 494.35 592.75 467.99 C 593.03 446.26 591.76 424.56 590.46 402.88 C 588.72 375.79 585.60 348.76 580.38 322.11 C 573.04 286.60 556.28 253.44 533.87 225.09 C 515.56 201.82 493.25 181.68 468.03 166.14 C 464.10 163.36 458.75 161.13 457.64 155.92 C 455.86 150.60 458.26 143.91 463.39 141.41 Z" />
<path d=" M 339.56 169.86 C 358.64 167.84 378.04 168.29 396.93 171.79 C 413.38 175.31 429.69 179.87 445.04 186.86 C 467.16 196.74 488.26 210.33 503.47 229.47 C 510.70 238.53 516.48 248.89 519.53 260.12 C 522.68 269.26 510.16 278.86 502.30 273.02 C 494.52 263.63 490.09 251.98 482.52 242.45 C 476.09 234.82 468.04 228.78 459.89 223.11 C 437.41 208.27 411.48 199.16 384.95 194.96 C 378.08 193.37 371.00 193.44 363.99 193.50 C 335.38 192.85 307.01 201.15 282.20 215.15 C 268.53 222.90 256.20 232.96 245.73 244.67 C 221.15 274.91 204.84 312.01 200.27 350.79 C 197.02 380.45 204.61 409.68 208.36 438.91 C 212.35 464.32 213.51 490.91 205.72 515.74 C 204.09 520.25 202.93 526.06 197.80 527.85 C 193.00 529.31 186.63 528.99 183.50 524.49 C 181.14 521.83 182.09 518.09 182.27 514.90 C 183.74 502.57 187.21 490.48 187.26 478.00 C 187.80 448.67 180.08 420.12 177.16 391.10 C 174.90 371.08 175.06 350.69 178.76 330.85 C 185.73 295.93 201.13 262.89 222.38 234.39 C 243.20 207.56 272.93 188.49 304.89 177.65 C 316.17 173.94 327.88 171.86 339.56 169.86 Z" />
<path d=" M 345.55 230.77 C 378.77 225.61 413.96 234.84 440.44 255.57 C 456.74 268.89 470.02 285.76 479.67 304.45 C 489.64 324.00 495.88 345.33 499.09 367.00 C 504.98 412.74 503.82 459.14 499.03 504.93 C 497.06 525.35 494.31 545.70 490.84 565.93 C 486.50 591.29 482.59 616.74 477.33 641.93 C 475.26 651.60 473.21 661.28 471.13 670.95 C 468.49 682.37 466.55 694.11 461.83 704.92 C 457.27 713.26 442.10 710.57 441.00 701.01 C 441.42 685.79 446.66 671.28 449.69 656.48 C 459.40 607.94 468.84 559.27 474.04 510.00 C 476.83 483.42 479.04 456.71 478.76 429.97 C 478.89 408.73 477.86 387.41 474.30 366.45 C 470.79 346.33 465.08 326.26 454.35 308.72 C 442.66 289.61 426.23 272.79 405.60 263.51 C 396.45 259.62 387.01 256.06 377.04 255.05 C 356.90 252.80 336.84 256.97 317.20 260.96 C 314.45 261.50 311.56 260.32 309.97 258.03 C 307.67 254.82 305.95 250.90 306.28 246.87 C 306.58 243.66 308.84 241.03 311.45 239.33 C 321.79 233.28 333.94 232.30 345.55 230.77 Z" />
<path d=" M 21.74 243.68 C 28.50 237.41 42.48 244.98 39.44 254.18 C 35.39 268.72 30.78 283.16 28.59 298.14 C 23.10 329.46 23.68 361.40 25.18 393.04 C 25.74 418.32 32.00 443.07 39.84 466.97 C 41.90 473.99 34.01 478.93 27.99 479.53 C 22.85 480.29 19.46 475.61 17.40 471.60 C 9.21 456.39 6.33 439.11 3.87 422.21 C 1.39 405.67 0.74 388.94 0.00 372.26 L 0.00 344.86 C 1.36 314.09 4.25 282.83 14.90 253.70 C 16.26 249.84 18.65 246.36 21.74 243.68 Z" />
<path d=" M 283.27 258.19 C 290.23 255.01 296.95 261.56 298.70 267.92 C 299.06 270.10 298.78 272.57 297.31 274.32 C 280.58 294.73 264.92 317.99 261.86 344.85 C 259.49 375.50 260.27 406.27 260.89 436.96 C 261.31 461.30 261.80 485.64 262.26 509.99 C 262.14 553.24 254.43 596.69 237.77 636.70 C 232.17 650.62 225.64 664.15 218.25 677.21 C 215.43 685.06 203.78 688.44 197.98 681.99 C 194.51 678.76 194.06 673.30 196.01 669.15 C 198.87 661.89 202.55 655.02 206.10 648.09 C 215.65 628.59 223.15 608.10 228.64 587.09 C 234.36 563.51 237.42 539.27 237.77 515.01 C 237.49 492.30 236.95 469.61 236.69 446.90 C 235.92 412.29 235.25 377.58 238.32 343.04 C 238.71 337.13 239.51 331.25 241.34 325.61 C 248.54 299.94 260.85 273.88 283.27 258.19 Z" />
<path d=" M 353.11 283.01 C 361.76 282.38 370.68 282.46 379.01 285.18 C 398.00 289.95 414.21 303.64 423.06 320.98 C 432.74 340.11 436.93 361.45 439.17 382.62 C 441.71 405.66 441.99 428.87 442.00 452.02 C 441.52 462.69 441.91 473.52 439.48 484.00 C 438.57 488.26 434.42 491.47 430.01 490.79 C 424.61 491.11 417.51 488.35 417.53 481.99 C 417.60 437.54 420.11 392.13 408.08 348.82 C 404.54 334.66 396.39 321.03 383.55 313.52 C 374.07 306.95 361.79 306.73 350.85 308.88 C 340.09 311.28 329.06 316.42 323.19 326.20 C 316.33 337.51 316.01 351.21 316.25 364.04 C 317.26 388.87 322.81 413.22 324.52 437.98 C 326.74 465.25 326.67 492.66 324.87 519.96 C 322.77 560.47 313.69 600.44 299.62 638.42 C 292.51 657.92 284.35 677.00 275.83 695.91 C 272.95 702.91 262.41 705.67 256.90 700.21 C 252.93 697.13 252.50 691.44 253.97 686.97 C 257.06 677.69 261.46 668.93 265.10 659.87 C 273.65 638.92 282.23 617.88 287.97 595.95 C 294.29 572.07 299.15 547.68 300.51 522.96 C 302.03 499.38 302.21 475.70 301.15 452.09 C 300.09 427.04 295.51 402.33 292.85 377.44 C 291.15 358.46 291.20 338.55 298.75 320.72 C 305.20 305.76 318.02 293.71 333.35 288.19 C 339.81 286.04 346.30 283.75 353.11 283.01 Z" />
<path d=" M 522.21 288.03 C 526.21 286.92 530.63 287.61 534.78 287.64 C 537.94 289.29 540.32 292.40 540.86 295.95 C 545.72 321.13 549.80 346.47 552.81 371.94 C 556.06 399.19 557.52 426.62 558.48 454.03 C 560.29 495.88 556.46 537.78 550.49 579.17 C 546.79 603.54 542.00 627.74 536.81 651.84 C 534.80 660.33 533.44 669.03 530.21 677.18 C 528.99 681.31 526.43 685.70 521.91 686.70 C 519.06 687.00 515.79 687.64 513.29 685.84 C 509.28 682.97 506.27 678.06 507.09 672.98 C 517.74 629.34 526.64 585.17 531.21 540.44 C 533.98 513.73 535.65 486.85 534.75 460.00 C 533.95 434.27 532.65 408.54 529.67 382.96 C 527.52 364.62 525.17 346.30 522.22 328.07 C 520.59 318.04 517.82 308.16 517.48 297.96 C 517.21 294.17 518.89 290.03 522.21 288.03 Z" />
<path d=" M 355.44 337.66 C 362.95 334.61 371.99 340.96 371.82 348.98 C 375.20 374.24 378.69 399.49 381.49 424.81 C 386.76 468.63 387.58 513.27 380.18 556.90 C 377.85 570.09 374.98 583.24 370.60 595.92 C 368.00 603.84 365.79 612.60 359.28 618.31 C 356.02 621.36 350.68 621.72 347.21 618.83 C 342.91 616.34 339.53 611.17 341.46 606.12 C 348.81 585.68 354.82 564.67 358.14 543.18 C 364.09 500.71 361.43 457.56 356.30 415.14 C 354.02 396.96 351.68 378.77 349.22 360.61 C 348.47 355.61 347.65 350.47 348.69 345.45 C 349.43 341.94 351.82 338.56 355.44 337.66 Z" />
<path d=" M 655.11 453.03 C 661.63 450.57 669.45 455.18 670.76 461.91 C 671.49 487.54 671.55 513.21 670.40 538.84 C 670.08 541.97 667.70 544.76 664.83 545.92 C 661.21 546.23 657.60 545.72 653.99 545.74 C 651.31 546.12 649.57 543.46 648.88 541.24 C 647.54 535.94 646.99 530.45 646.99 524.99 C 647.01 509.00 646.99 493.02 647.00 477.04 C 646.95 470.95 646.74 464.67 648.94 458.89 C 649.97 456.10 652.38 454.06 655.11 453.03 Z" />
<path d=" M 419.99 522.99 C 422.61 520.22 426.67 521.06 430.07 521.14 C 434.84 520.90 439.86 525.02 439.52 530.00 C 440.00 539.03 437.92 547.89 436.89 556.81 C 430.02 609.83 417.03 662.33 395.28 711.29 C 393.65 715.07 391.09 718.87 386.88 720.00 L 382.66 720.00 C 377.84 718.36 372.04 714.91 372.56 709.02 C 375.20 694.82 381.34 681.62 385.92 668.00 C 391.62 652.23 397.24 636.39 400.88 619.99 C 407.08 594.02 410.13 567.45 414.61 541.15 C 415.89 535.04 415.36 527.82 419.99 522.99 Z" />
<path d=" M 169.87 578.89 C 172.19 574.00 175.40 569.60 179.20 565.77 C 184.41 566.27 191.24 564.25 194.66 569.45 C 198.56 573.98 195.92 580.15 193.98 584.93 C 185.37 603.27 177.02 621.74 168.04 639.91 C 165.52 644.43 163.46 649.23 160.55 653.52 C 157.43 657.70 151.51 656.40 147.33 654.81 C 142.98 653.32 139.55 648.73 140.98 644.03 C 144.10 631.85 150.20 620.76 155.45 609.43 C 160.25 599.24 165.03 589.06 169.87 578.89 Z" />
<path d=" M 330.43 645.72 C 337.58 643.22 346.77 649.10 346.44 656.89 C 342.96 670.81 335.65 683.33 329.42 696.15 C 326.68 701.35 324.55 707.09 320.30 711.31 C 312.65 718.07 298.21 707.97 302.66 698.45 C 309.21 682.35 315.26 665.79 325.34 651.47 C 326.96 649.53 328.02 646.78 330.43 645.72 Z" />
</g>
</svg>
